<svg xmlns="http://www.w3.org/2000/svg" xmlns:xlink="http://www.w3.org/1999/xlink" width="350" zoomAndPan="magnify" viewBox="0 0 262.5 262.500001" height="350" preserveAspectRatio="xMidYMid meet" version="1.0"><defs><g/><clipPath id="id1"><path d="M 141 64 L 262 64 L 262 210 L 141 210 Z M 141 64 " clip-rule="nonzero"/></clipPath></defs><g fill="#121212" fill-opacity="1"><g transform="translate(3.41576, 209.556773)"><g><path d="M 12.640625 0 L 12.640625 -145.453125 L 43.390625 -145.453125 L 43.390625 -81.328125 L 45.3125 -81.328125 L 97.65625 -145.453125 L 134.515625 -145.453125 L 80.546875 -80.328125 L 135.15625 0 L 98.359375 0 L 58.515625 -59.796875 L 43.390625 -41.328125 L 43.390625 0 Z M 12.640625 0 "/></g></g></g><g clip-path="url(#id1)"><g fill="#121212" fill-opacity="1"><g transform="translate(129.138282, 209.556773)"><g><path d="M 12.640625 0 L 12.640625 -145.453125 L 43.390625 -145.453125 L 43.390625 -85.4375 L 105.828125 -85.4375 L 105.828125 -145.453125 L 136.5 -145.453125 L 136.5 0 L 105.828125 0 L 105.828125 -60.078125 L 43.390625 -60.078125 L 43.390625 0 Z M 12.640625 0 "/></g></g></g></g><g fill="#ff577f" fill-opacity="1"><g transform="translate(-6.090832, 203.853271)"><g><path d="M 12.671875 0 L 12.671875 -145.734375 L 43.484375 -145.734375 L 43.484375 -81.484375 L 45.40625 -81.484375 L 97.84375 -145.734375 L 134.78125 -145.734375 L 80.703125 -80.484375 L 135.421875 0 L 98.5625 0 L 58.640625 -59.921875 L 43.484375 -41.421875 L 43.484375 0 Z M 12.671875 0 "/></g></g></g><g fill="#ff577f" fill-opacity="1"><g transform="translate(119.075244, 203.853271)"><g><path d="M 12.671875 0 L 12.671875 -145.734375 L 43.484375 -145.734375 L 43.484375 -85.609375 L 106.03125 -85.609375 L 106.03125 -145.734375 L 136.765625 -145.734375 L 136.765625 0 L 106.03125 0 L 106.03125 -60.203125 L 43.484375 -60.203125 L 43.484375 0 Z M 12.671875 0 "/></g></g></g></svg>